<?xml version="1.0" encoding="utf-8"?>
<!-- Generator: Adobe Illustrator 14.0.0, SVG Export Plug-In . SVG Version: 6.00 Build 43363)  -->
<!DOCTYPE svg PUBLIC "-//W3C//DTD SVG 1.1//EN" "http://www.w3.org/Graphics/SVG/1.1/DTD/svg11.dtd">
<svg version="1.1" id="Layer_1" xmlns="http://www.w3.org/2000/svg" xmlns:xlink="http://www.w3.org/1999/xlink" x="0px" y="0px"
	 width="128px" height="128px" viewBox="0 0 128 128" enable-background="new 0 0 128 128" xml:space="preserve">
<g>
	<g>
		<path fill="#FF6F6B" d="M84.814,43.399c-0.78-0.782-2.047-0.782-2.828,0L64.032,61.356L46.077,43.399
			c-0.781-0.782-2.047-0.782-2.828,0c-0.781,0.781-0.781,2.047,0,2.828l17.955,17.957L43.249,82.141
			c-0.781,0.78-0.781,2.047,0,2.828c0.391,0.391,0.902,0.586,1.414,0.586c0.512,0,1.023-0.195,1.414-0.586l17.955-17.955
			l17.954,17.955c0.392,0.391,0.902,0.586,1.414,0.586c0.513,0,1.023-0.195,1.414-0.586c0.781-0.781,0.781-2.048,0-2.828
			L66.859,64.184l17.955-17.957C85.598,45.447,85.598,44.18,84.814,43.399z M64.032,14.054c-27.642,0-50.129,22.487-50.129,50.127
			c0.002,27.643,22.491,50.131,50.133,50.131c27.639,0,50.125-22.489,50.125-50.131C114.161,36.541,91.674,14.054,64.032,14.054z
			 M64.036,110.313h-0.002c-25.435,0-46.129-20.694-46.131-46.13c0-25.435,20.693-46.127,46.129-46.127
			c25.436,0,46.129,20.693,46.129,46.127C110.161,89.617,89.471,110.313,64.036,110.313z"/>
	</g>
</g>
</svg>
